<svg width="295" height="18" viewBox="0 0 295 18" fill="none" xmlns="http://www.w3.org/2000/svg">
<path d="M0.877344 5.208H5.14934V18H11.0533V5.208H15.3253L14.3413 0.551999H1.86134L0.877344 5.208ZM17.1816 18H22.7976V11.52H26.5656V18H32.1816V0.551999H26.5656V7.08H22.7976V0.551999H17.1816V18ZM47.386 5.208L46.426 0.551999H34.666V18H46.282L47.434 13.344H40.09V11.424H46.306V7.32H40.09V5.208H47.386ZM54.8457 18H60.3897V9.528L64.6617 17.928L69.0297 9.528V18H74.5737V0.551999H67.7337L64.6617 7.44L61.7097 0.551999H54.8457V18ZM82.0581 18L82.4421 16.128H86.9301L87.2901 18H93.0021L88.5861 0.551999H80.7381L76.3461 18H82.0581ZM84.6741 5.256L86.1381 12.408H83.2101L84.6741 5.256ZM101.261 12.6C101.813 12.6 102.125 12.888 102.317 13.392L103.901 18H110.021L108.341 13.224C108.077 12.432 107.693 11.952 106.973 11.808C108.653 11.808 109.565 10.512 109.565 9.024V4.44C109.565 1.704 108.341 0.551999 105.605 0.551999H94.8535V18H100.541V12.6H101.261ZM100.445 8.64V4.968H103.157C103.829 4.968 104.141 5.328 104.141 6V7.392C104.141 8.328 103.829 8.64 102.581 8.64H100.445ZM123.459 18L124.635 13.344H118.539C117.603 13.344 117.483 13.2 117.483 12.384V6.048C117.483 5.424 117.675 5.208 118.323 5.208H124.371L123.387 0.551999H115.827C113.043 0.551999 111.939 1.32 111.939 4.176V14.424C111.939 17.088 112.947 18 115.683 18H123.459ZM126.611 18H132.227V11.52H135.995V18H141.611V0.551999H135.995V7.08H132.227V0.551999H126.611V18ZM152.486 18H161.198C162.998 18 164.438 16.776 164.438 15V3.576C164.438 1.824 163.238 0.551999 161.414 0.551999H152.486C150.686 0.551999 149.486 1.824 149.486 3.576V15C149.486 16.752 150.662 18 152.486 18ZM155.774 13.344C155.102 13.344 154.958 13.176 154.958 12.504V6C154.958 5.352 155.102 5.184 155.774 5.184H158.102C158.75 5.184 158.942 5.352 158.942 6.024V12.504C158.942 13.152 158.774 13.344 158.126 13.344H155.774ZM179.644 5.208L178.684 0.551999H166.924V18H172.324V11.808H178.564V7.68H172.348V5.208H179.644ZM187.01 18H192.626V11.52H196.394V18H202.01V0.551999H196.394V7.08H192.626V0.551999H187.01V18ZM204.614 18H210.086V0.551999H204.614V18ZM222.465 18C225.273 18 226.281 17.136 226.281 14.328V10.872C226.281 8.04 225.441 7.296 222.633 7.296H218.409C218.121 7.296 218.049 7.176 218.049 6.912V5.568C218.049 5.28 218.121 5.208 218.361 5.208H226.113L225.153 0.551999H216.465C213.633 0.551999 212.649 1.464 212.649 4.32V7.824C212.649 10.608 213.417 11.376 216.273 11.376H220.161C220.449 11.376 220.545 11.52 220.545 11.784V12.984C220.545 13.272 220.449 13.344 220.209 13.344H212.889L213.849 18H222.465ZM227.635 5.208H231.907V18H237.811V5.208H242.083L241.099 0.551999H228.619L227.635 5.208ZM246.939 18H255.651C257.451 18 258.891 16.776 258.891 15V3.576C258.891 1.824 257.691 0.551999 255.867 0.551999H246.939C245.139 0.551999 243.939 1.824 243.939 3.576V15C243.939 16.752 245.115 18 246.939 18ZM250.227 13.344C249.555 13.344 249.411 13.176 249.411 12.504V6C249.411 5.352 249.555 5.184 250.227 5.184H252.555C253.203 5.184 253.395 5.352 253.395 6.024V12.504C253.395 13.152 253.227 13.344 252.579 13.344H250.227ZM267.785 12.6C268.337 12.6 268.649 12.888 268.841 13.392L270.425 18H276.545L274.865 13.224C274.601 12.432 274.217 11.952 273.497 11.808C275.177 11.808 276.089 10.512 276.089 9.024V4.44C276.089 1.704 274.865 0.551999 272.129 0.551999H261.377V18H267.065V12.6H267.785ZM266.969 8.64V4.968H269.681C270.353 4.968 270.665 5.328 270.665 6V7.392C270.665 8.328 270.353 8.64 269.105 8.64H266.969ZM276.992 0.551999L282.632 12.384V18H288.68V12.384L294.248 0.551999H287.672L285.752 6.984L283.592 0.551999H276.992Z" fill="#491709"/>
</svg>
