<svg width="516" height="53" viewBox="0 0 516 53" fill="none" xmlns="http://www.w3.org/2000/svg">
<path d="M3.51459 0.655996L0.778594 10.376H7.76259V53H18.4186V10.376H25.4026L22.8106 0.655996H3.51459ZM55.3045 0.655996H44.6485V23.12H38.9605V0.655996H28.3045V53H38.9605V32.12H44.6485V53H55.3045V0.655996ZM59.5936 53H79.4656L81.2656 43.28H70.3216V31.904H78.9616V22.904H70.3216V10.376H81.6976L79.8976 0.655996H59.5936V53ZM109.771 49.256L116.395 28.376V53H126.763V0.655996H115.459L109.771 22.832L104.083 0.655996H92.8514V53H103.219V28.376L109.771 49.256ZM148.237 46.52L149.173 53H159.685L150.253 0.655996H139.093L129.661 53H140.173L141.109 46.52H148.237ZM144.709 19.592L147.085 38.24H142.261L144.709 19.592ZM178.083 9.8C178.803 9.8 179.091 10.232 179.091 10.88V26.864C179.091 27.656 178.875 27.944 178.083 27.944H172.971V9.8H178.083ZM189.387 7.64C189.387 2.96 187.083 0.655996 182.403 0.655996H162.531V53H172.971V36.368H174.339L179.379 53H190.179L184.707 36.368C187.731 36.368 189.387 34.064 189.387 31.76V7.64ZM213.62 53L215.492 43.28H205.484C204.764 43.28 204.548 42.92 204.548 42.272V11.384C204.548 10.736 204.764 10.376 205.484 10.376H215.492L213.692 0.655996H200.156C196.628 0.655996 193.82 2.96 193.82 7.064V45.08C193.82 50.84 195.836 53 201.812 53H213.62ZM246.062 0.655996H235.406V23.12H229.718V0.655996H219.062V53H229.718V32.12H235.406V53H246.062V0.655996ZM274.903 9.8C275.623 9.8 275.839 10.16 275.839 10.808V42.776C275.839 43.568 275.695 43.856 274.831 43.856H270.871C270.007 43.856 269.863 43.568 269.863 42.776V10.808C269.863 10.16 270.079 9.8 270.799 9.8H274.903ZM286.423 7.424C286.423 3.32 284.335 0.655996 279.439 0.655996H266.335C261.439 0.655996 259.351 3.32 259.351 7.424V45.584C259.351 49.544 260.935 53 266.767 53H279.007C284.839 53 286.423 49.544 286.423 45.584V7.424ZM290.711 53H301.439V31.904H310.079V22.904H301.439V10.376H312.815L311.015 0.655996H290.711V53ZM351.32 0.655996H340.664V23.12H334.976V0.655996H324.32V53H334.976V32.12H340.664V53H351.32V0.655996ZM355.609 53H366.049V0.655996H355.609V53ZM386.863 53C391.543 53 393.847 50.696 393.847 46.016V27.872C393.847 23.984 391.975 22.544 388.663 22.544H382.111C381.031 22.544 380.527 22.256 380.527 21.176V11.528C380.527 10.736 380.959 10.376 381.823 10.376H393.631L391.831 0.655996H377.359C372.463 0.655996 370.375 3.32 370.375 7.424V25.28C370.375 30.464 373.111 31.184 376.207 31.184H381.607C383.047 31.184 383.551 31.256 383.551 32.696V42.2C383.551 42.992 383.263 43.28 382.327 43.28H371.095L372.967 53H386.863ZM398.53 0.655996L395.794 10.376H402.778V53H413.434V10.376H420.418L417.826 0.655996H398.53ZM438.872 9.8C439.592 9.8 439.808 10.16 439.808 10.808V42.776C439.808 43.568 439.664 43.856 438.8 43.856H434.84C433.976 43.856 433.832 43.568 433.832 42.776V10.808C433.832 10.16 434.048 9.8 434.768 9.8H438.872ZM450.392 7.424C450.392 3.32 448.304 0.655996 443.408 0.655996H430.304C425.408 0.655996 423.32 3.32 423.32 7.424V45.584C423.32 49.544 424.904 53 430.736 53H442.976C448.808 53 450.392 49.544 450.392 45.584V7.424ZM470.232 9.8C470.952 9.8 471.24 10.232 471.24 10.88V26.864C471.24 27.656 471.024 27.944 470.232 27.944H465.12V9.8H470.232ZM481.536 7.64C481.536 2.96 479.232 0.655996 474.552 0.655996H454.68V53H465.12V36.368H466.488L471.528 53H482.328L476.856 36.368C479.88 36.368 481.536 34.064 481.536 31.76V7.64ZM505.201 39.752L515.209 0.655996H504.409L499.657 25.424L494.977 0.655996H484.177L494.185 39.752V53H505.201V39.752Z" fill="#B5431F"/>
</svg>
