<svg width="147" height="40" viewBox="0 0 147 40" fill="none" xmlns="http://www.w3.org/2000/svg">
<path d="M0.6 5.208H4.872V18H10.776V5.208H15.048L14.064 0.551999H1.584L0.6 5.208ZM16.9043 18H22.5203V11.52H26.2883V18H31.9043V0.551999H26.2883V7.08H22.5203V0.551999H16.9043V18ZM47.1086 5.208L46.1486 0.551999H34.3886V18H46.0046L47.1566 13.344H39.8126V11.424H46.0286V7.32H39.8126V5.208H47.1086ZM54.5683 18H60.1123V9.528L64.3843 17.928L68.7523 9.528V18H74.2963V0.551999H67.4563L64.3843 7.44L61.4323 0.551999H54.5683V18ZM81.7808 18L82.1648 16.128H86.6528L87.0128 18H92.7248L88.3088 0.551999H80.4608L76.0688 18H81.7808ZM84.3968 5.256L85.8608 12.408H82.9328L84.3968 5.256ZM100.984 12.6C101.536 12.6 101.848 12.888 102.04 13.392L103.624 18H109.744L108.064 13.224C107.8 12.432 107.416 11.952 106.696 11.808C108.376 11.808 109.288 10.512 109.288 9.024V4.44C109.288 1.704 108.064 0.551999 105.328 0.551999H94.5761V18H100.264V12.6H100.984ZM100.168 8.64V4.968H102.88C103.552 4.968 103.864 5.328 103.864 6V7.392C103.864 8.328 103.552 8.64 102.304 8.64H100.168ZM123.182 18L124.358 13.344H118.262C117.326 13.344 117.206 13.2 117.206 12.384V6.048C117.206 5.424 117.398 5.208 118.046 5.208H124.094L123.11 0.551999H115.55C112.766 0.551999 111.662 1.32 111.662 4.176V14.424C111.662 17.088 112.67 18 115.406 18H123.182ZM126.334 18H131.95V11.52H135.718V18H141.334V0.551999H135.718V7.08H131.95V0.551999H126.334V18ZM4.248 40H12.96C14.76 40 16.2 38.776 16.2 37V25.576C16.2 23.824 15 22.552 13.176 22.552H4.248C2.448 22.552 1.248 23.824 1.248 25.576V37C1.248 38.752 2.424 40 4.248 40ZM7.536 35.344C6.864 35.344 6.72 35.176 6.72 34.504V28C6.72 27.352 6.864 27.184 7.536 27.184H9.864C10.512 27.184 10.704 27.352 10.704 28.024V34.504C10.704 35.152 10.536 35.344 9.888 35.344H7.536ZM31.4055 27.208L30.4455 22.552H18.6855V40H24.0855V33.808H30.3255V29.68H24.1095V27.208H31.4055ZM38.7714 40H44.3874V33.52H48.1554V40H53.7714V22.552H48.1554V29.08H44.3874V22.552H38.7714V40ZM56.3758 40H61.8478V22.552H56.3758V40ZM74.2269 40C77.0349 40 78.0429 39.136 78.0429 36.328V32.872C78.0429 30.04 77.2029 29.296 74.3949 29.296H70.1709C69.8829 29.296 69.8109 29.176 69.8109 28.912V27.568C69.8109 27.28 69.8829 27.208 70.1229 27.208H77.8749L76.9149 22.552H68.2269C65.3949 22.552 64.4109 23.464 64.4109 26.32V29.824C64.4109 32.608 65.1789 33.376 68.0349 33.376H71.9229C72.2109 33.376 72.3069 33.52 72.3069 33.784V34.984C72.3069 35.272 72.2109 35.344 71.9709 35.344H64.6509L65.6109 40H74.2269ZM79.3969 27.208H83.6689V40H89.5729V27.208H93.8449L92.8609 22.552H80.3809L79.3969 27.208ZM98.7011 40H107.413C109.213 40 110.653 38.776 110.653 37V25.576C110.653 23.824 109.453 22.552 107.629 22.552H98.7011C96.9011 22.552 95.7011 23.824 95.7011 25.576V37C95.7011 38.752 96.8771 40 98.7011 40ZM101.989 35.344C101.317 35.344 101.173 35.176 101.173 34.504V28C101.173 27.352 101.317 27.184 101.989 27.184H104.317C104.965 27.184 105.157 27.352 105.157 28.024V34.504C105.157 35.152 104.989 35.344 104.341 35.344H101.989ZM119.547 34.6C120.099 34.6 120.411 34.888 120.603 35.392L122.187 40H128.307L126.627 35.224C126.363 34.432 125.979 33.952 125.259 33.808C126.939 33.808 127.851 32.512 127.851 31.024V26.44C127.851 23.704 126.627 22.552 123.891 22.552H113.139V40H118.827V34.6H119.547ZM118.731 30.64V26.968H121.443C122.115 26.968 122.427 27.328 122.427 28V29.392C122.427 30.328 122.115 30.64 120.867 30.64H118.731ZM128.753 22.552L134.393 34.384V40H140.441V34.384L146.009 22.552H139.433L137.513 28.984L135.353 22.552H128.753Z" fill="#491709"/>
</svg>
