<svg width="588" height="75" viewBox="0 0 588 75" fill="none" xmlns="http://www.w3.org/2000/svg">
<path d="M204.36 71L212.16 41.92H202.6L198.28 61.96L194 41.92H184.2L192.04 71H204.36ZM229.652 71C234.332 71 236.012 69.56 236.012 64.88V59.12C236.012 54.4 234.612 53.16 229.932 53.16H222.892C222.412 53.16 222.292 52.96 222.292 52.52V50.28C222.292 49.8 222.412 49.68 222.812 49.68H235.732L234.132 41.92H219.652C214.932 41.92 213.292 43.44 213.292 48.2V54.04C213.292 58.68 214.572 59.96 219.332 59.96H225.812C226.292 59.96 226.452 60.2 226.452 60.64V62.64C226.452 63.12 226.292 63.24 225.892 63.24H213.692L215.292 71H229.652Z" fill="#B5431F"/>
<path d="M25.44 67.008L34.272 39.168V72H48.096V2.20799H33.024L25.44 31.776L17.856 2.20799H2.88V72H16.704V39.168L25.44 67.008ZM53.88 72H67.8V2.20799H53.88V72ZM95.5515 72C101.792 72 104.864 68.928 104.864 62.688V38.496C104.864 33.312 102.368 31.392 97.9515 31.392H89.2155C87.7755 31.392 87.1035 31.008 87.1035 29.568V16.704C87.1035 15.648 87.6795 15.168 88.8315 15.168H104.576L102.176 2.20799H82.8795C76.3515 2.20799 73.5675 5.75999 73.5675 11.232V35.04C73.5675 41.952 77.2155 42.912 81.3435 42.912H88.5435C90.4635 42.912 91.1355 43.008 91.1355 44.928V57.6C91.1355 58.656 90.7515 59.04 89.5035 59.04H74.5275L77.0235 72H95.5515ZM110.599 72H137.095L139.495 59.04H124.903V43.872H136.423V31.872H124.903V15.168H140.071L137.671 2.20799H110.599V72ZM165.864 72C172.104 72 175.176 68.928 175.176 62.688V38.496C175.176 33.312 172.68 31.392 168.264 31.392H159.528C158.088 31.392 157.416 31.008 157.416 29.568V16.704C157.416 15.648 157.992 15.168 159.144 15.168H174.888L172.488 2.20799H153.192C146.664 2.20799 143.88 5.75999 143.88 11.232V35.04C143.88 41.952 147.528 42.912 151.656 42.912H158.856C160.776 42.912 161.448 43.008 161.448 44.928V57.6C161.448 58.656 161.064 59.04 159.816 59.04H144.84L147.336 72H165.864Z" fill="#B5431F"/>
<path d="M270.44 67.008L279.272 39.168V72H293.096V2.20799H278.024L270.44 31.776L262.856 2.20799H247.88V72H261.704V39.168L270.44 67.008ZM321.728 63.36L322.976 72H336.992L324.416 2.20799H309.536L296.96 72H310.976L312.224 63.36H321.728ZM317.024 27.456L320.192 52.32H313.76L317.024 27.456ZM361.522 14.4C362.482 14.4 362.866 14.976 362.866 15.84V37.152C362.866 38.208 362.578 38.592 361.522 38.592H354.706V14.4H361.522ZM376.594 11.52C376.594 5.27999 373.522 2.20799 367.282 2.20799H340.786V72H354.706V49.824H356.53L363.25 72H377.65L370.354 49.824C374.386 49.824 376.594 46.752 376.594 43.68V11.52ZM418.8 2.20799H405.072L399.696 26.88L394.512 2.20799H380.688L390.192 35.712L380.304 72H394.416L399.696 47.52L405.072 72H419.184L409.296 35.712L418.8 2.20799Z" fill="#B5431F"/>
<path d="M441.6 37.208H445.872V50H451.776V37.208H456.048L455.064 32.552H442.584L441.6 37.208ZM457.904 50H463.52V43.52H467.288V50H472.904V32.552H467.288V39.08H463.52V32.552H457.904V50ZM488.109 37.208L487.149 32.552H475.389V50H487.005L488.157 45.344H480.813V43.424H487.029V39.32H480.813V37.208H488.109ZM495.568 50H501.112V41.528L505.384 49.928L509.752 41.528V50H515.296V32.552H508.456L505.384 39.44L502.432 32.552H495.568V50ZM522.781 50L523.165 48.128H527.653L528.013 50H533.725L529.309 32.552H521.461L517.069 50H522.781ZM525.397 37.256L526.861 44.408H523.933L525.397 37.256ZM541.984 44.6C542.536 44.6 542.848 44.888 543.04 45.392L544.624 50H550.744L549.064 45.224C548.8 44.432 548.416 43.952 547.696 43.808C549.376 43.808 550.288 42.512 550.288 41.024V36.44C550.288 33.704 549.064 32.552 546.328 32.552H535.576V50H541.264V44.6H541.984ZM541.168 40.64V36.968H543.88C544.552 36.968 544.864 37.328 544.864 38V39.392C544.864 40.328 544.552 40.64 543.304 40.64H541.168ZM564.182 50L565.358 45.344H559.262C558.326 45.344 558.206 45.2 558.206 44.384V38.048C558.206 37.424 558.398 37.208 559.046 37.208H565.094L564.11 32.552H556.55C553.766 32.552 552.662 33.32 552.662 36.176V46.424C552.662 49.088 553.67 50 556.406 50H564.182ZM567.334 50H572.95V43.52H576.718V50H582.334V32.552H576.718V39.08H572.95V32.552H567.334V50ZM445.248 72H453.96C455.76 72 457.2 70.776 457.2 69V57.576C457.2 55.824 456 54.552 454.176 54.552H445.248C443.448 54.552 442.248 55.824 442.248 57.576V69C442.248 70.752 443.424 72 445.248 72ZM448.536 67.344C447.864 67.344 447.72 67.176 447.72 66.504V60C447.72 59.352 447.864 59.184 448.536 59.184H450.864C451.512 59.184 451.704 59.352 451.704 60.024V66.504C451.704 67.152 451.536 67.344 450.888 67.344H448.536ZM472.406 59.208L471.446 54.552H459.686V72H465.086V65.808H471.326V61.68H465.11V59.208H472.406ZM479.771 72H485.387V65.52H489.155V72H494.771V54.552H489.155V61.08H485.387V54.552H479.771V72ZM497.376 72H502.848V54.552H497.376V72ZM515.227 72C518.035 72 519.043 71.136 519.043 68.328V64.872C519.043 62.04 518.203 61.296 515.395 61.296H511.171C510.883 61.296 510.811 61.176 510.811 60.912V59.568C510.811 59.28 510.883 59.208 511.123 59.208H518.875L517.915 54.552H509.227C506.395 54.552 505.411 55.464 505.411 58.32V61.824C505.411 64.608 506.179 65.376 509.035 65.376H512.923C513.211 65.376 513.307 65.52 513.307 65.784V66.984C513.307 67.272 513.211 67.344 512.971 67.344H505.651L506.611 72H515.227ZM520.397 59.208H524.669V72H530.573V59.208H534.845L533.861 54.552H521.381L520.397 59.208ZM539.701 72H548.413C550.213 72 551.653 70.776 551.653 69V57.576C551.653 55.824 550.453 54.552 548.629 54.552H539.701C537.901 54.552 536.701 55.824 536.701 57.576V69C536.701 70.752 537.877 72 539.701 72ZM542.989 67.344C542.317 67.344 542.173 67.176 542.173 66.504V60C542.173 59.352 542.317 59.184 542.989 59.184H545.317C545.965 59.184 546.157 59.352 546.157 60.024V66.504C546.157 67.152 545.989 67.344 545.341 67.344H542.989ZM560.547 66.6C561.099 66.6 561.411 66.888 561.603 67.392L563.187 72H569.307L567.627 67.224C567.363 66.432 566.979 65.952 566.259 65.808C567.939 65.808 568.851 64.512 568.851 63.024V58.44C568.851 55.704 567.627 54.552 564.891 54.552H554.139V72H559.827V66.6H560.547ZM559.731 62.64V58.968H562.443C563.115 58.968 563.427 59.328 563.427 60V61.392C563.427 62.328 563.115 62.64 561.867 62.64H559.731ZM569.753 54.552L575.393 66.384V72H581.441V66.384L587.009 54.552H580.433L578.513 60.984L576.353 54.552H569.753Z" fill="#491709"/>
</svg>
