<svg width="425" height="75" viewBox="0 0 425 75" fill="none" xmlns="http://www.w3.org/2000/svg">
<path d="M204.36 71L212.16 41.92H202.6L198.28 61.96L194 41.92H184.2L192.04 71H204.36ZM229.652 71C234.332 71 236.012 69.56 236.012 64.88V59.12C236.012 54.4 234.612 53.16 229.932 53.16H222.892C222.412 53.16 222.292 52.96 222.292 52.52V50.28C222.292 49.8 222.412 49.68 222.812 49.68H235.732L234.132 41.92H219.652C214.932 41.92 213.292 43.44 213.292 48.2V54.04C213.292 58.68 214.572 59.96 219.332 59.96H225.812C226.292 59.96 226.452 60.2 226.452 60.64V62.64C226.452 63.12 226.292 63.24 225.892 63.24H213.692L215.292 71H229.652Z" fill="#B5431F"/>
<path d="M25.44 67.008L34.272 39.168V72H48.096V2.20799H33.024L25.44 31.776L17.856 2.20799H2.88V72H16.704V39.168L25.44 67.008ZM53.88 72H67.8V2.20799H53.88V72ZM95.5515 72C101.792 72 104.864 68.928 104.864 62.688V38.496C104.864 33.312 102.368 31.392 97.9515 31.392H89.2155C87.7755 31.392 87.1035 31.008 87.1035 29.568V16.704C87.1035 15.648 87.6795 15.168 88.8315 15.168H104.576L102.176 2.20799H82.8795C76.3515 2.20799 73.5675 5.75999 73.5675 11.232V35.04C73.5675 41.952 77.2155 42.912 81.3435 42.912H88.5435C90.4635 42.912 91.1355 43.008 91.1355 44.928V57.6C91.1355 58.656 90.7515 59.04 89.5035 59.04H74.5275L77.0235 72H95.5515ZM110.599 72H137.095L139.495 59.04H124.903V43.872H136.423V31.872H124.903V15.168H140.071L137.671 2.20799H110.599V72ZM165.864 72C172.104 72 175.176 68.928 175.176 62.688V38.496C175.176 33.312 172.68 31.392 168.264 31.392H159.528C158.088 31.392 157.416 31.008 157.416 29.568V16.704C157.416 15.648 157.992 15.168 159.144 15.168H174.888L172.488 2.20799H153.192C146.664 2.20799 143.88 5.75999 143.88 11.232V35.04C143.88 41.952 147.528 42.912 151.656 42.912H158.856C160.776 42.912 161.448 43.008 161.448 44.928V57.6C161.448 58.656 161.064 59.04 159.816 59.04H144.84L147.336 72H165.864Z" fill="#B5431F"/>
<path d="M270.44 67.008L279.272 39.168V72H293.096V2.20799H278.024L270.44 31.776L262.856 2.20799H247.88V72H261.704V39.168L270.44 67.008ZM321.728 63.36L322.976 72H336.992L324.416 2.20799H309.536L296.96 72H310.976L312.224 63.36H321.728ZM317.024 27.456L320.192 52.32H313.76L317.024 27.456ZM361.522 14.4C362.482 14.4 362.866 14.976 362.866 15.84V37.152C362.866 38.208 362.578 38.592 361.522 38.592H354.706V14.4H361.522ZM376.594 11.52C376.594 5.27999 373.522 2.20799 367.282 2.20799H340.786V72H354.706V49.824H356.53L363.25 72H377.65L370.354 49.824C374.386 49.824 376.594 46.752 376.594 43.68V11.52ZM418.8 2.20799H405.072L399.696 26.88L394.512 2.20799H380.688L390.192 35.712L380.304 72H394.416L399.696 47.52L405.072 72H419.184L409.296 35.712L418.8 2.20799Z" fill="#B5431F"/>
</svg>
